<?xml version="1.0" standalone="no"?>
<!DOCTYPE svg PUBLIC "-//W3C//DTD SVG 20010904//EN"
 "http://www.w3.org/TR/2001/REC-SVG-20010904/DTD/svg10.dtd">
<svg version="1.0" xmlns="http://www.w3.org/2000/svg"
 width="550.000000pt" height="550.000000pt" viewBox="0 0 550.000000 550.000000"
 preserveAspectRatio="xMidYMid meet">
<metadata>
Created by potrace 1.14, written by Peter Selinger 2001-2017
</metadata>
<g transform="translate(0.000000,550.000000) scale(0.100000,-0.100000)"
fill="#000000" stroke="none">
<path d="M3025 3727 c-12 -11 -14 -17 -5 -13 9 5 8 2 -2 -7 -10 -8 -15 -17
-12 -20 5 -5 -25 -26 -36 -24 -3 0 -14 -4 -25 -11 -11 -6 -17 -12 -13 -12 4 0
1 -15 -7 -34 -8 -18 -11 -37 -7 -41 4 -5 2 -5 -4 -2 -7 4 -17 0 -24 -8 -7 -8
-10 -15 -6 -15 3 0 -14 -40 -40 -90 -25 -49 -50 -90 -55 -90 -6 0 -7 -5 -3
-12 5 -8 2 -9 -10 -5 -14 5 -17 3 -12 -8 3 -8 2 -15 -3 -15 -5 0 -16 -17 -24
-38 -8 -21 -22 -44 -31 -51 -9 -8 -16 -18 -16 -23 0 -6 -14 -31 -32 -57 -17
-25 -44 -69 -59 -98 -14 -29 -29 -50 -33 -48 -3 3 -4 2 -1 -1 2 -4 -4 -23 -14
-43 -11 -20 -19 -40 -19 -45 0 -5 -5 -12 -10 -15 -5 -3 -35 -59 -67 -123 -32
-65 -62 -118 -67 -118 -5 0 -7 -4 -4 -9 3 -5 -3 -19 -13 -32 -10 -13 -21 -34
-25 -46 -4 -13 -12 -23 -17 -23 -5 0 -9 -9 -9 -20 0 -11 -4 -20 -10 -20 -5 0
-10 -5 -10 -11 0 -7 -10 -20 -22 -30 -11 -11 -18 -19 -14 -19 9 0 -33 -72 -48
-82 -6 -4 -15 -7 -21 -7 -5 0 -4 3 3 6 6 2 10 9 6 14 -3 5 -1 9 4 9 4 0 9 12
9 28 3 119 2 208 -3 272 -3 41 -6 93 -7 115 -1 22 -6 46 -11 54 -6 10 -5 12 2
7 7 -4 10 6 7 31 -2 21 -6 135 -10 253 -11 405 -28 500 -97 550 -56 41 -76 46
-96 23 -17 -18 -47 -77 -40 -79 1 0 -3 -9 -11 -18 -8 -9 -15 -29 -17 -44 -1
-15 -3 -29 -4 -32 -1 -3 -1 -39 0 -80 1 -41 3 -108 3 -147 1 -40 4 -73 7 -73
3 0 5 -26 5 -57 0 -32 3 -70 7 -85 3 -15 3 -30 -1 -33 -5 -2 -6 -16 -3 -30 4
-24 3 -25 -22 -15 -15 5 -55 10 -88 10 -48 0 -72 -6 -117 -30 -80 -43 -221
-183 -221 -219 0 -6 -3 -11 -8 -11 -4 0 -13 -15 -21 -32 -7 -18 -19 -46 -27
-63 -12 -29 -25 -69 -30 -90 -1 -5 -5 -23 -9 -40 -3 -16 -7 -37 -7 -45 0 -8
-4 -19 -7 -25 -4 -5 -6 -31 -6 -57 0 -27 -3 -48 -7 -48 -4 0 -7 -5 -6 -12 2
-8 -19 -13 -62 -15 -36 -2 -76 -6 -90 -9 -14 -4 -43 -8 -65 -9 -22 -2 -59 -6
-81 -10 -23 -3 -44 -3 -47 2 -2 4 4 42 14 83 10 41 18 86 19 100 0 14 7 53 16
85 8 33 17 67 19 75 10 43 37 168 41 190 3 14 9 39 15 57 5 17 12 44 15 60 3
15 9 42 13 59 6 20 4 39 -4 55 -9 16 -10 28 -4 36 7 7 6 13 0 17 -7 4 -7 15
-1 30 5 13 6 27 3 30 -4 3 -1 6 6 6 7 0 11 6 8 13 -2 6 0 26 5 42 10 34 18 70
23 100 1 11 8 40 14 64 14 49 9 73 -13 65 -9 -3 -15 -9 -14 -12 1 -4 -3 -16
-9 -27 -6 -11 -14 -37 -18 -58 -4 -20 -11 -37 -16 -37 -5 0 -9 -7 -9 -15 0 -8
-5 -15 -11 -15 -6 0 -8 14 -4 38 8 43 13 66 15 70 3 2 3 2 14 52 5 19 12 40
17 46 6 8 3 13 -8 16 -13 4 -19 -2 -20 -19 -5 -51 -6 -53 -26 -47 -14 4 -18 2
-14 -7 2 -8 10 -13 16 -11 7 1 10 -2 6 -7 -3 -6 -12 -8 -21 -4 -13 5 -14 -2
-8 -46 5 -36 3 -51 -5 -51 -7 0 -9 5 -6 10 3 6 4 10 1 10 -3 0 -10 -9 -17 -21
-10 -19 -8 -20 13 -15 12 3 18 3 11 0 -7 -3 -9 -13 -6 -22 4 -13 3 -14 -5 -3
-10 14 -36 6 -27 -9 3 -5 1 -11 -4 -15 -6 -3 -8 -12 -4 -20 3 -8 0 -15 -6 -15
-6 0 -11 -7 -11 -16 0 -9 -10 -33 -22 -53 -13 -20 -22 -37 -20 -38 1 -2 2 -4
1 -5 0 -2 -2 -12 -4 -23 -2 -10 -8 -28 -13 -40 -6 -11 -20 -56 -32 -100 -13
-44 -26 -85 -31 -91 -5 -6 -6 -14 -2 -17 3 -4 0 -14 -8 -24 -9 -11 -10 -14 -2
-9 16 9 16 1 3 -24 -5 -10 -12 -33 -14 -51 -3 -19 -19 -96 -36 -172 -17 -76
-32 -147 -33 -158 -1 -10 -4 -19 -7 -19 -3 0 -6 -8 -6 -17 -1 -10 -4 -34 -8
-53 -3 -19 -7 -44 -9 -55 -3 -27 -39 -55 -74 -56 -15 0 -44 -7 -63 -14 l-35
-13 29 -1 c31 -1 27 -15 -5 -17 -10 -1 -20 -2 -21 -4 -2 -1 -19 -3 -38 -6 -19
-2 -48 -8 -65 -13 -25 -8 -20 -9 25 -5 178 14 167 14 145 -2 -17 -13 -76 -33
-115 -39 -21 -3 -19 -28 3 -31 9 -1 15 2 11 7 -3 5 0 9 5 9 6 0 11 -5 11 -11
0 -5 4 -8 8 -5 4 2 35 6 67 8 49 2 59 0 56 -12 -14 -53 0 -160 21 -160 4 0 8
-5 8 -11 0 -13 25 -39 39 -39 21 0 108 98 134 151 30 62 34 64 148 74 55 5 81
9 154 21 22 4 65 8 95 8 l55 1 22 -45 c12 -25 39 -63 60 -86 39 -43 117 -89
133 -79 5 3 11 1 14 -4 6 -9 78 -6 144 5 19 3 51 14 72 25 43 23 174 139 165
147 -2 3 3 11 13 19 10 9 11 11 2 7 -13 -7 -13 -5 -1 9 20 25 28 21 25 -10 -1
-16 -3 -28 -4 -28 -8 0 -8 -105 0 -110 6 -3 8 -10 5 -15 -3 -5 -1 -20 5 -35 9
-24 14 -26 43 -19 99 21 212 108 256 197 12 23 21 38 21 32 1 -5 7 4 15 20 8
17 28 50 45 75 16 25 33 52 37 60 3 8 25 44 47 80 23 36 47 74 53 85 7 11 22
41 34 68 12 26 25 47 30 47 5 0 8 3 7 8 -1 4 3 17 10 28 6 12 9 24 7 28 -3 3
0 2 5 -2 12 -9 2 -72 -11 -72 -5 0 -6 -7 -3 -15 4 -8 3 -23 -1 -32 -4 -10 -9
-29 -11 -43 -2 -14 -6 -36 -10 -50 -9 -33 -10 -35 -27 -108 -9 -35 -13 -70
-10 -78 3 -8 1 -14 -4 -14 -5 0 -10 -17 -12 -37 -2 -21 -4 -47 -5 -58 -1 -11
2 -26 8 -33 5 -7 5 -12 0 -11 -23 4 -33 -2 -27 -18 4 -10 2 -14 -5 -9 -6 3
-13 2 -17 -4 -3 -5 -18 -10 -33 -10 -25 0 -25 -1 -7 -14 11 -8 24 -12 29 -9 5
3 7 0 4 -8 -3 -8 -18 -17 -34 -20 -23 -5 -13 -12 12 -8 4 0 11 -5 16 -13 7
-10 8 -9 4 5 -7 22 -1 22 22 -1 16 -16 17 -20 4 -28 -11 -7 -8 -10 12 -12 17
-1 24 2 20 11 -2 7 5 23 16 35 21 23 36 30 25 12 -3 -5 -1 -10 5 -10 6 0 9 -4
5 -9 -12 -20 19 -23 34 -3 12 15 27 21 56 21 63 0 164 14 220 31 17 5 50 11
75 14 25 3 79 14 120 25 41 11 102 23 134 26 80 10 79 9 94 18 14 10 14 10 12
-71 -1 -53 3 -70 30 -117 31 -54 32 -55 58 -41 33 17 106 88 110 107 2 8 8 17
14 20 5 3 9 8 8 10 -1 2 4 18 11 34 7 17 12 33 11 37 -3 15 85 31 233 43 44 4
82 8 85 10 6 3 80 11 209 21 l83 6 -6 -28 c-14 -65 -14 -74 0 -89 12 -11 12
-15 2 -15 -10 0 -9 -3 2 -10 12 -8 10 -10 -10 -11 -15 -1 -18 -3 -9 -6 16 -4
17 -45 4 -106 -2 -13 1 -17 12 -13 8 3 17 6 19 6 3 0 3 4 0 9 -3 4 3 19 14 31
12 14 20 18 20 10 0 -7 8 -23 18 -34 14 -17 14 -19 0 -8 -11 9 -18 10 -23 2
-3 -5 -5 -10 -3 -11 40 -9 50 -8 44 7 -3 8 -1 24 4 34 8 16 8 18 -5 14 -13 -5
-13 -2 0 30 8 20 16 39 16 43 0 5 3 10 6 13 3 3 3 -7 -1 -23 -6 -26 -6 -27 12
-10 10 10 19 29 20 42 1 14 10 33 20 44 9 11 11 17 5 13 -15 -8 -18 10 -3 19
6 3 10 19 10 35 0 25 21 46 43 42 36 -8 177 109 177 147 0 27 -79 91 -111 91
-23 0 -32 6 -40 26 -10 29 -3 68 12 59 5 -4 9 1 9 9 0 9 5 16 11 16 5 0 7 5 4
10 -3 6 1 13 9 16 9 3 14 10 11 14 -3 5 4 11 15 15 11 4 18 10 15 15 -3 4 2
11 11 14 8 3 12 10 9 16 -3 5 0 7 8 4 9 -3 17 3 20 16 3 12 10 19 16 15 7 -4
8 0 4 11 -5 14 -3 16 11 11 10 -4 15 -3 11 3 -3 6 1 13 9 16 9 3 13 10 10 15
-3 5 4 9 16 9 12 0 19 4 16 9 -3 5 1 12 10 15 10 4 14 12 10 22 -6 15 -4 15
11 3 15 -12 16 -12 10 4 -4 12 -1 17 10 17 9 0 14 2 11 5 -3 3 13 25 36 49 74
77 126 140 126 153 0 7 0 16 -1 19 0 4 5 11 13 15 11 7 10 11 -2 19 -13 8 -13
10 1 10 27 0 12 59 -18 66 -28 8 -103 -12 -103 -26 0 -6 -7 -10 -15 -10 -8 0
-15 -3 -15 -7 0 -14 -62 -78 -72 -75 -5 1 -7 -2 -3 -8 3 -5 1 -10 -4 -10 -6 0
-10 -4 -9 -8 3 -9 -62 -72 -74 -72 -5 0 -7 -4 -5 -9 1 -5 -19 -29 -45 -55 -26
-25 -45 -46 -42 -46 4 0 -17 -22 -45 -50 -28 -27 -51 -56 -51 -65 0 -13 -3
-13 -13 -3 -8 7 -14 17 -14 23 0 23 -36 66 -51 60 -13 -5 -13 -3 -1 12 8 9 9
14 2 10 -6 -4 -14 -3 -18 3 -3 5 -2 10 4 10 6 0 8 7 5 15 -4 8 -10 12 -15 9
-5 -3 -9 7 -9 21 0 19 -6 29 -21 32 -16 4 -17 8 -7 14 10 7 11 9 0 9 -8 0 -10
5 -6 13 5 7 0 6 -11 -3 -17 -14 -18 -14 -6 9 8 15 9 21 2 17 -6 -4 -11 -3 -11
3 0 6 -11 22 -26 36 -14 14 -22 30 -18 38 4 6 3 9 -1 4 -5 -4 -17 12 -28 35
-26 57 -53 76 -53 39 0 -11 5 -17 11 -13 5 3 3 -3 -5 -13 -9 -11 -10 -16 -2
-11 6 4 12 2 12 -3 0 -6 -9 -11 -21 -11 -11 0 -17 5 -14 10 3 6 2 10 -4 10 -5
0 -8 9 -6 19 4 20 -19 36 -36 25 -16 -10 -9 -26 9 -20 16 7 16 6 0 -10 -16
-16 -16 -18 3 -35 12 -10 18 -23 14 -28 -3 -6 -1 -11 5 -11 6 0 9 -4 6 -8 -3
-5 2 -19 11 -31 8 -13 17 -41 18 -63 2 -21 8 -45 14 -52 6 -7 8 -16 4 -19 -3
-4 -1 -7 6 -7 7 0 10 -4 6 -9 -3 -5 2 -16 10 -25 9 -8 15 -17 14 -18 -5 -8 13
-48 22 -48 5 0 9 -6 9 -13 0 -8 14 -41 30 -75 17 -34 30 -69 30 -77 0 -8 5
-15 10 -15 7 0 7 -6 0 -20 -6 -11 -8 -20 -5 -20 3 0 -5 -11 -19 -24 -15 -13
-26 -28 -26 -35 0 -6 -7 -11 -16 -11 -8 0 -13 -4 -10 -9 3 -4 -2 -15 -12 -24
-18 -16 -70 -25 -182 -34 -99 -7 -129 -10 -210 -22 -111 -16 -118 -15 -114 12
3 22 9 52 20 97 3 14 7 36 9 50 2 14 4 25 5 25 1 0 4 16 6 35 4 31 9 56 21 98
1 6 5 20 7 30 3 9 5 17 6 17 1 0 3 9 5 20 12 67 28 142 32 155 3 8 7 27 9 43
1 15 9 49 17 75 34 107 42 176 23 195 -7 7 -11 23 -9 35 1 12 4 30 6 40 1 9 6
23 10 30 5 6 6 12 3 12 -3 0 2 23 10 51 8 27 17 62 19 77 8 65 17 97 25 100 5
2 7 9 4 16 -3 7 0 24 5 38 8 21 7 28 -5 32 -22 8 -24 8 -24 -9 0 -8 -4 -23 -9
-33 -8 -14 -16 -33 -26 -62 -20 -56 -67 -123 -51 -74 3 11 7 35 10 54 5 43 24
130 33 150 3 8 7 26 9 40 3 23 2 23 -11 -5 -8 -16 -14 -40 -15 -52 0 -13 -4
-23 -9 -23 -5 0 -7 -9 -4 -20 3 -12 0 -20 -6 -20 -7 0 -9 -4 -6 -10 3 -5 2
-10 -3 -10 -5 0 -12 11 -14 25 -3 14 -1 25 3 25 5 0 9 12 9 28 -1 26 -1 26
-16 -8 -15 -35 -12 -80 6 -80 10 0 6 -25 -10 -76 -12 -35 -24 -42 -36 -22 -4
6 -3 8 4 4 6 -3 14 -1 18 5 5 8 3 9 -6 4 -10 -6 -12 -4 -7 9 4 10 7 20 7 22 0
3 4 2 10 -1 5 -3 7 0 4 9 -5 12 -8 12 -23 -2 -9 -9 -17 -24 -18 -32 -3 -33
-12 -70 -19 -82 -5 -7 -9 -21 -9 -30 -1 -10 -10 -27 -20 -38 -11 -13 -14 -20
-6 -20 8 0 7 -5 -3 -16 -9 -8 -17 -20 -17 -25 -2 -12 -6 -28 -9 -34 -1 -3 -3
-8 -4 -12 -1 -5 -4 -12 -7 -18 -3 -5 -16 -44 -28 -85 -13 -41 -25 -82 -28 -90
-3 -8 -7 -22 -9 -30 -1 -8 -5 -26 -8 -40 -2 -14 -7 -37 -10 -52 -3 -16 -8 -39
-11 -53 -3 -14 -8 -37 -11 -52 -3 -15 -10 -30 -16 -34 -7 -4 -7 -9 1 -13 7 -5
8 -13 1 -25 -5 -10 -6 -21 -3 -25 3 -3 1 -6 -6 -6 -7 0 -11 -7 -8 -15 4 -8 2
-17 -4 -20 -5 -4 -7 -10 -4 -15 3 -5 1 -11 -5 -15 -6 -4 -8 -10 -5 -15 3 -5 1
-11 -4 -15 -5 -3 -8 -14 -6 -25 2 -11 -1 -20 -6 -20 -6 0 -8 -4 -4 -9 3 -5 0
-13 -6 -17 -8 -4 -7 -9 2 -15 8 -5 9 -9 4 -9 -6 0 -12 -14 -13 -31 -1 -17 -7
-40 -13 -51 -9 -16 -8 -19 2 -13 8 6 10 4 3 -6 -9 -15 -11 -22 -18 -88 -3 -24
-6 -45 -8 -47 -2 -1 -31 -8 -63 -14 -55 -9 -76 -13 -155 -25 -78 -11 -91 -17
-78 -34 7 -9 8 -13 4 -9 -5 4 -14 4 -20 -1 -9 -7 -220 -53 -393 -86 -13 -2
-25 0 -28 6 -4 5 1 9 9 9 9 0 15 3 14 8 -1 4 3 17 10 30 7 12 9 22 5 22 -4 0
-3 4 2 8 12 8 54 124 62 167 7 43 30 75 56 76 24 1 55 5 127 16 25 4 50 8 55
8 6 1 30 7 55 15 25 7 51 13 58 13 6 0 12 4 12 9 0 5 -11 6 -25 4 -13 -3 -27
-1 -30 4 -3 5 4 7 15 5 11 -2 20 0 20 4 0 5 21 14 48 21 26 7 52 17 58 21 6 5
14 6 18 2 4 -4 4 0 0 10 -3 9 -12 18 -20 18 -27 3 -32 4 -39 11 -4 4 8 12 26
17 29 9 25 10 -26 5 -33 -4 -70 -7 -82 -7 -13 -1 -23 -4 -23 -9 0 -4 -7 -5
-15 -1 -22 8 -14 12 36 19 55 8 86 23 49 24 -14 1 -33 3 -42 5 -9 2 -52 -3
-95 -11 -43 -8 -100 -17 -127 -21 l-48 -6 7 54 c4 30 9 65 10 79 1 14 3 25 4
25 3 0 11 50 14 80 1 11 5 22 9 25 3 3 8 20 11 38 3 19 8 36 10 38 2 3 31 6
63 9 33 2 79 8 104 14 25 5 98 17 163 25 86 11 126 21 148 36 16 12 28 24 28
28 -1 4 0 9 1 12 27 70 -45 128 -137 111 -26 -5 -84 -15 -128 -21 -44 -6 -100
-16 -125 -21 -103 -21 -98 -22 -96 21 1 32 -1 36 -13 27 -12 -10 -13 -8 -9 8
3 11 7 27 9 35 2 8 7 17 10 20 6 5 52 99 54 110 0 3 6 15 13 26 6 12 9 24 6
26 -2 3 2 11 11 18 8 7 15 21 15 32 0 10 9 37 20 58 11 22 18 40 14 40 -3 0 2
7 10 16 9 8 14 20 11 25 -4 5 -1 9 5 9 19 0 6 23 -14 26 -11 2 -20 -5 -23 -17
-3 -10 -10 -19 -15 -19 -5 0 -6 -5 -3 -10 3 -6 -1 -13 -9 -16 -9 -3 -13 -10
-10 -15 3 -5 0 -9 -6 -9 -6 0 -8 -5 -5 -10 3 -6 -1 -13 -9 -16 -9 -3 -13 -10
-10 -15 3 -5 -2 -12 -10 -15 -9 -3 -16 -11 -16 -18 0 -6 -9 -19 -20 -29 -28
-23 -27 -21 26 98 10 22 19 42 19 45 1 3 16 36 34 74 18 37 31 69 29 71 -2 1
-12 -7 -23 -18z m-37 -79 c-2 -7 -9 -19 -16 -26 -7 -8 -9 -19 -5 -25 3 -7 3
-9 -2 -5 -4 4 -14 0 -21 -10 -10 -13 -12 -14 -10 -2 3 21 27 63 40 72 15 10
16 10 14 -4z m-83 -154 c-11 -18 -12 -24 -3 -24 8 0 6 -5 -4 -11 -10 -5 -18
-17 -18 -24 0 -8 -8 -23 -17 -33 -10 -10 -19 -25 -21 -33 -2 -8 -15 -34 -30
-59 -15 -25 -27 -49 -27 -54 0 -14 -25 -20 -25 -6 0 7 9 24 19 38 10 15 20 32
21 37 1 6 6 9 12 7 5 -1 7 2 3 7 -3 6 1 22 10 35 9 14 13 31 9 37 -4 8 -3 9 4
5 7 -4 12 -1 12 7 0 8 7 20 15 27 8 7 12 16 9 21 -3 5 2 12 11 15 9 4 14 12
11 19 -6 16 3 27 16 19 5 -3 2 -17 -7 -30z m855 -56 c0 -7 -5 -20 -10 -28 -8
-11 -9 -9 -8 13 2 26 18 40 18 15z m-25 -90 c-5 -24 -25 -49 -25 -31 0 7 4 14
9 18 6 3 8 14 6 25 -2 12 0 18 5 15 5 -3 7 -15 5 -27z m-20 -57 c3 -5 2 -12
-3 -15 -5 -3 -9 1 -9 9 0 17 3 19 12 6z m-963 -98 c-9 -21 -20 -40 -24 -43 -4
-3 -9 -15 -11 -25 -6 -31 -41 -105 -50 -105 -4 0 -6 -4 -3 -8 3 -5 -1 -9 -8
-9 -17 0 -8 37 10 44 7 2 10 11 7 19 -3 8 0 14 6 14 6 0 10 3 9 8 -4 10 65
142 74 142 4 0 0 -17 -10 -37z m-111 -216 c-6 -8 -9 -16 -6 -19 3 -3 -3 -11
-12 -19 -16 -13 -17 -12 -4 4 7 9 10 17 6 17 -4 0 -2 7 5 15 7 8 15 15 17 15
3 0 0 -6 -6 -13z m-684 -44 c-4 -3 -2 -12 4 -19 6 -7 7 -19 3 -26 -9 -14 -12
-78 -4 -78 5 0 8 -46 12 -232 2 -60 7 -108 12 -108 4 0 6 -6 3 -14 -3 -8 3
-24 13 -36 14 -16 17 -27 10 -40 -5 -10 -7 -20 -3 -23 8 -9 -17 -38 -28 -31
-5 3 -6 -3 -2 -12 4 -12 3 -15 -5 -10 -7 4 -12 1 -12 -9 0 -46 -112 -171 -189
-210 -60 -30 -119 -30 -165 0 -25 17 -61 64 -54 71 3 2 24 6 49 9 116 14 150
27 205 80 51 49 53 52 41 78 -6 15 -16 27 -20 27 -5 0 -17 10 -26 22 -15 18
-28 21 -87 21 -38 0 -86 -3 -106 -7 -21 -3 -41 -6 -45 -7 -25 -4 -37 1 -25 13
7 7 8 17 1 30 -5 10 -6 18 -1 18 4 0 8 10 9 23 1 19 7 52 17 92 12 44 53 133
84 180 32 49 116 130 157 152 49 26 168 63 152 46z m2229 -28 c1 -8 -3 -18 -8
-22 -7 -3 -8 -1 -4 6 4 6 0 14 -9 17 -13 5 -14 9 -4 15 15 9 22 5 25 -16z m20
-50 c1 -9 -4 -11 -14 -7 -10 4 -12 7 -4 10 7 2 9 9 5 15 -3 7 -2 8 2 4 5 -4
10 -14 11 -22z m149 -74 c-3 -5 -1 -12 5 -16 5 -3 10 -14 10 -23 -1 -12 -5
-10 -14 8 -13 22 -13 40 0 40 3 0 3 -4 -1 -9z m-1681 -58 c-3 -15 -9 -32 -15
-39 -5 -6 -7 -14 -4 -18 3 -3 -1 -1 -7 4 -10 9 -10 12 -1 18 7 4 15 19 17 32
6 31 5 30 10 30 3 0 2 -12 0 -27z m-194 -61 c0 -5 -6 -16 -13 -27 -11 -14 -16
-15 -22 -5 -5 8 -4 11 3 6 6 -3 13 3 17 14 6 20 15 27 15 12z m-1714 -439 c-3
-4 -12 -8 -19 -9 -7 -2 -22 -6 -34 -10 -15 -4 -23 -2 -23 5 0 7 3 10 8 8 4 -3
16 -1 27 4 25 10 51 11 41 2z"/>
<path d="M2985 3320 c-3 -6 1 -7 9 -4 18 7 21 14 7 14 -6 0 -13 -4 -16 -10z"/>
<path d="M583 2223 c-22 -8 -14 -19 12 -19 14 0 25 3 25 7 0 10 -23 17 -37 12z"/>
<path d="M500 2199 c0 -5 5 -7 10 -4 6 3 10 8 10 11 0 2 -4 4 -10 4 -5 0 -10
-5 -10 -11z"/>
<path d="M2610 1946 c0 -8 -6 -17 -12 -19 -10 -4 -10 -6 0 -6 7 -1 15 5 18 13
3 8 13 12 22 9 15 -4 15 -3 2 6 -20 15 -30 14 -30 -3z"/>
<path d="M2595 1899 c-4 -6 -5 -12 -2 -15 2 -3 7 2 10 11 7 17 1 20 -8 4z"/>
<path d="M4263 1865 c0 -11 4 -12 14 -4 7 6 13 13 13 15 0 2 -6 4 -13 4 -8 0
-14 -7 -14 -15z"/>
</g>
</svg>
